<svg width="222" height="47" viewBox="0 0 222 47" fill="none" xmlns="http://www.w3.org/2000/svg">
<path fill-rule="evenodd" clip-rule="evenodd" d="M6.43 46.934V44.685H7.758V42.874H6.43V36.4H5.056L0 42.89V44.69H4.409V46.939H6.431L6.43 46.934ZM4.63 39.464V42.875H2.023L4.63 39.464ZM8.343 37.11L11.15 41.079L8.298 45.018H10.381L12.116 42.558L12.237 42.301L12.373 42.558L14.124 45.018H16.209L13.342 41.079L16.164 37.11H14.081L12.391 39.585L12.24 39.857L12.119 39.585L10.414 37.11H8.346H8.343ZM22.909 46.934V44.685H24.237V42.874H22.909V36.4H21.536L16.48 42.89V44.69H20.887V46.939H22.909V46.934ZM21.109 39.464V42.875H18.503L21.109 39.464ZM29.115 41.6C29.3646 42.2477 29.7276 42.8457 30.187 43.366C30.6475 43.8864 31.2031 44.3141 31.824 44.626C32.4754 44.9524 33.1955 45.118 33.924 45.109C34.3717 45.1071 34.8176 45.0514 35.252 44.943C35.6955 44.8358 36.1238 44.6735 36.527 44.46C36.9191 44.2528 37.2801 43.9912 37.599 43.683C37.9123 43.3814 38.1613 43.0194 38.331 42.619L36.626 41.638C36.5144 41.9157 36.3505 42.1693 36.143 42.385C35.9503 42.5849 35.7293 42.7554 35.487 42.891C35.2526 43.0211 35.0012 43.1177 34.74 43.178C34.4926 43.2369 34.2393 43.2674 33.985 43.269C33.5419 43.2743 33.1042 43.1713 32.71 42.969C32.3262 42.7724 31.986 42.5003 31.71 42.169C31.4276 41.8267 31.2104 41.4356 31.069 41.015C30.9179 40.5755 30.8415 40.1138 30.843 39.649C30.8457 39.2164 30.9131 38.7867 31.043 38.374C31.1668 37.9601 31.3636 37.5717 31.624 37.227C31.8837 36.8873 32.2131 36.607 32.59 36.405C33.0112 36.1855 33.4812 36.0765 33.956 36.088C34.2049 36.0888 34.4531 36.1167 34.696 36.171C34.948 36.2266 35.1914 36.3154 35.42 36.435C35.661 36.5632 35.8801 36.7289 36.069 36.926C36.2816 37.1493 36.4551 37.407 36.582 37.688L38.182 36.588C37.819 35.8825 37.2613 35.296 36.575 34.898C35.7983 34.4505 34.9131 34.2259 34.017 34.249C33.2466 34.2352 32.4831 34.3952 31.783 34.717C30.5331 35.297 29.5645 36.3494 29.09 37.643C28.6064 38.9193 28.6171 40.3302 29.12 41.599L29.115 41.6ZM43.233 44.807C43.7392 44.5631 44.1793 44.2009 44.516 43.751L44.561 44.189C44.602 44.4548 44.739 44.6963 44.946 44.868C45.2013 45.0541 45.5138 45.1447 45.829 45.124C46.1284 45.1183 46.4266 45.0828 46.719 45.018V43.297C46.6503 43.2986 46.5819 43.2861 46.5183 43.2601C46.4546 43.2341 46.397 43.1953 46.349 43.146C46.2613 43.0121 46.2215 42.8524 46.236 42.693V40.233C46.2655 39.7849 46.1964 39.3358 46.0335 38.9173C45.8705 38.4988 45.6178 38.1212 45.293 37.811C44.5449 37.2121 43.6005 36.9134 42.644 36.973C41.4707 36.9718 40.3242 37.3242 39.354 37.984L39.973 39.267C40.3567 38.996 40.7721 38.773 41.21 38.603C41.6056 38.4535 42.0251 38.3769 42.448 38.377C42.9265 38.3416 43.4001 38.4932 43.769 38.8C43.9234 38.9589 44.0427 39.1485 44.1194 39.3564C44.196 39.5642 44.2283 39.7859 44.214 40.007V40.46C43.9245 40.3412 43.6226 40.255 43.314 40.203C42.9727 40.1424 42.6267 40.1123 42.28 40.113C41.8205 40.1084 41.3628 40.1721 40.922 40.302C40.5399 40.4129 40.1799 40.5892 39.858 40.823C39.5685 41.0359 39.3312 41.3119 39.164 41.63C38.9975 41.949 38.912 42.3041 38.915 42.664C38.9093 43.0078 38.9775 43.3488 39.115 43.664C39.249 43.9631 39.4414 44.2324 39.681 44.456C39.9301 44.687 40.2223 44.8664 40.541 44.984C40.8838 45.1118 41.2471 45.1759 41.613 45.173C42.1756 45.1763 42.7315 45.0508 43.238 44.806L43.233 44.807ZM41.226 43.351C41.1007 43.2475 41.0004 43.117 40.9325 42.9693C40.8646 42.8216 40.8309 42.6605 40.834 42.498C40.8345 42.318 40.8806 42.141 40.968 41.9836C41.0555 41.8262 41.1814 41.6935 41.334 41.598C41.7142 41.3473 42.164 41.223 42.619 41.243C42.8927 41.2443 43.1657 41.2721 43.434 41.326C43.7012 41.3767 43.9637 41.4493 44.219 41.543V42.448C44.2131 42.5631 44.18 42.6753 44.1223 42.7751C44.0645 42.8749 43.9839 42.9595 43.887 43.022C43.6917 43.2399 43.4453 43.4059 43.17 43.505C42.86 43.6262 42.5299 43.6876 42.197 43.686C41.8445 43.6975 41.5003 43.5778 41.231 43.35L41.226 43.351ZM52.756 37.02C52.7036 37.0099 52.6504 37.0048 52.597 37.005H52.353C52.1281 37.0075 51.9054 37.0509 51.696 37.133C51.4565 37.2258 51.2305 37.3502 51.024 37.503C50.7976 37.6685 50.59 37.8583 50.405 38.069C50.2088 38.2915 50.0409 38.5373 49.905 38.801V37.111H48.052V45.019H50.074V40.233C50.2865 39.7787 50.6563 39.4168 51.115 39.214C51.6319 38.9801 52.1927 38.859 52.76 38.859V37.019L52.756 37.02ZM59.276 45.02V41.425H61.329L63.517 45.017H65.856L63.411 40.988C64.0009 40.7397 64.4956 40.3085 64.822 39.758C65.1697 39.188 65.3502 38.5317 65.343 37.864C65.3408 37.4215 65.2536 36.9836 65.086 36.574C64.9189 36.153 64.6789 35.7647 64.377 35.427C64.0731 35.0885 63.7067 34.8117 63.298 34.612C62.8729 34.4042 62.4052 34.2984 61.932 34.303H57.198V45.017H59.281L59.276 45.02ZM59.276 36.131H61.796C61.9821 36.1322 62.1655 36.1759 62.332 36.259C62.5109 36.3467 62.6701 36.4699 62.8 36.621C62.94 36.784 63.0501 36.9706 63.125 37.172C63.2074 37.394 63.2484 37.6292 63.246 37.866C63.2475 38.0966 63.2117 38.3259 63.14 38.545C63.0762 38.7436 62.9792 38.9299 62.853 39.096C62.7371 39.248 62.5906 39.3741 62.423 39.466C62.2588 39.5562 62.0743 39.603 61.887 39.602H59.281V36.128L59.276 36.131ZM72.685 44.59C73.2881 44.2432 73.7752 43.7259 74.085 43.103L72.35 42.62C72.205 42.9571 71.9458 43.2322 71.618 43.397C71.2694 43.5909 70.8769 43.6922 70.478 43.691C70.2205 43.6916 69.965 43.6455 69.724 43.555C69.2365 43.3728 68.8374 43.0106 68.609 42.543C68.4831 42.2826 68.4065 42.0012 68.383 41.713H74.495C74.517 41.6144 74.5297 41.514 74.533 41.413C74.533 41.292 74.54 41.167 74.54 41.036C74.5413 40.5103 74.4467 39.9888 74.261 39.497C74.0809 39.0126 73.8035 38.5702 73.446 38.197C73.0763 37.8166 72.6343 37.514 72.146 37.307C71.5991 37.0781 71.0108 36.965 70.418 36.975C69.8205 36.9662 69.2274 37.0791 68.675 37.307C68.1781 37.5141 67.7286 37.8204 67.354 38.207C66.9917 38.5843 66.7094 39.0309 66.524 39.52C66.3308 40.0284 66.2335 40.5682 66.237 41.112C66.2347 41.6444 66.3345 42.1722 66.531 42.667C66.7234 43.1567 67.0134 43.6021 67.3834 43.9761C67.7533 44.3502 68.1955 44.6451 68.683 44.843C69.2287 45.0658 69.8137 45.1763 70.403 45.168C71.2041 45.1898 71.9955 44.9887 72.689 44.587L72.685 44.59ZM68.347 40.402C68.3621 40.125 68.43 39.8535 68.547 39.602C68.6558 39.3699 68.8067 39.16 68.992 38.983C69.1738 38.8116 69.3861 38.6759 69.618 38.583C69.9812 38.4421 70.3763 38.4041 70.7597 38.4733C71.1431 38.5424 71.4999 38.716 71.791 38.975C72.1855 39.348 72.4208 39.8588 72.448 40.401H68.351L68.347 40.402ZM83.047 40.085C83.0464 39.7055 83.013 39.3267 82.947 38.953C82.8894 38.6011 82.7691 38.2624 82.592 37.953C82.417 37.6573 82.1673 37.4128 81.868 37.244C81.4963 37.0486 81.0796 36.9548 80.66 36.972C80.0116 36.9615 79.3701 37.1061 78.789 37.394C78.2599 37.6533 77.8189 38.0627 77.521 38.571V37.109H75.695V45.017H77.718V40.399C77.7873 40.1593 77.8998 39.9343 78.05 39.735C78.193 39.54 78.3611 39.3648 78.55 39.214C78.7317 39.071 78.934 38.9564 79.15 38.874C79.3472 38.7963 79.557 38.7553 79.769 38.753C79.9466 38.7456 80.1232 38.7817 80.2837 38.858C80.4442 38.9343 80.5837 39.0486 80.69 39.191C80.9441 39.6071 81.0603 40.0929 81.022 40.579V45.016H83.044V40.082L83.047 40.085ZM88.993 43.013C88.8717 43.0637 88.7107 43.124 88.51 43.194C88.3112 43.2642 88.1019 43.3001 87.891 43.3C87.6979 43.306 87.5087 43.2444 87.356 43.126C87.2757 43.0496 87.2142 42.9557 87.1762 42.8517C87.1382 42.7476 87.1248 42.6361 87.137 42.526V38.664H88.797V37.109H87.137V34.543H85.114V37.109H84.073V38.663H85.114V43.206C85.1055 43.5143 85.162 43.821 85.28 44.106C85.3809 44.3375 85.5334 44.5427 85.726 44.706C85.9156 44.8643 86.1369 44.9802 86.375 45.046C86.6328 45.118 86.8994 45.1537 87.167 45.152C87.5861 45.154 88.0031 45.093 88.404 44.971C88.7442 44.8701 89.0781 44.7492 89.404 44.609L88.993 43.013ZM94.154 44.813C94.6602 44.5691 95.1003 44.2069 95.437 43.757L95.482 44.195C95.5236 44.4606 95.6605 44.7019 95.867 44.874C96.1223 45.06 96.4348 45.1506 96.75 45.13C97.0494 45.1243 97.3476 45.0888 97.64 45.024V43.297C97.5714 43.2989 97.5031 43.2865 97.4396 43.2605C97.376 43.2345 97.3186 43.1955 97.271 43.146C97.1831 43.0121 97.1433 42.8524 97.158 42.693V40.233C97.1875 39.7848 97.1182 39.3356 96.9551 38.9171C96.792 38.4986 96.539 38.121 96.214 37.811C95.4662 37.2122 94.5221 36.9134 93.566 36.973C92.3927 36.9718 91.2462 37.3242 90.276 37.984L90.894 39.267C91.278 38.9959 91.6937 38.7729 92.132 38.603C92.5276 38.4535 92.9471 38.3769 93.37 38.377C93.8482 38.3417 94.3214 38.4934 94.69 38.8C94.8444 38.9589 94.9638 39.1484 95.0405 39.3563C95.1171 39.5642 95.1493 39.7859 95.135 40.007V40.46C94.8454 40.3413 94.5436 40.2551 94.235 40.203C93.8937 40.1424 93.5477 40.1123 93.201 40.113C92.7415 40.1085 92.2838 40.1722 91.843 40.302C91.461 40.4131 91.101 40.5894 90.779 40.823C90.4894 41.0358 90.2521 41.3118 90.085 41.63C89.9185 41.949 89.833 42.3041 89.836 42.664C89.8303 43.0078 89.8985 43.3488 90.036 43.664C90.1699 43.9632 90.3623 44.2325 90.602 44.456C90.851 44.6871 91.1433 44.8666 91.462 44.984C91.8045 45.1117 92.1675 45.1758 92.533 45.173C93.0953 45.1763 93.6508 45.0507 94.157 44.806L94.154 44.813ZM92.147 43.357C92.0216 43.2535 91.9213 43.1231 91.8534 42.9754C91.7855 42.8277 91.7519 42.6665 91.755 42.504C91.7555 42.3239 91.8016 42.147 91.889 41.9896C91.9765 41.8322 92.1024 41.6995 92.255 41.604C92.6346 41.3535 93.0836 41.2293 93.538 41.249C93.8114 41.2503 94.084 41.2781 94.352 41.332C94.6193 41.3832 94.8818 41.4565 95.137 41.551V42.456C95.1311 42.5711 95.098 42.6833 95.0403 42.7831C94.9825 42.8829 94.9019 42.9675 94.805 43.03C94.6098 43.248 94.3634 43.414 94.088 43.513C93.778 43.6343 93.4479 43.6957 93.115 43.694C92.7618 43.703 92.4178 43.5804 92.15 43.35L92.147 43.357ZM98.953 43.198C98.9361 43.4611 98.9736 43.7249 99.0633 43.9728C99.1529 44.2208 99.2927 44.4475 99.474 44.639C99.6738 44.816 99.9066 44.9517 100.159 45.0384C100.412 45.125 100.679 45.1609 100.945 45.144C101.275 45.1399 101.603 45.1044 101.926 45.038C102.255 44.9793 102.574 44.8785 102.877 44.738L102.609 43.191C102.475 43.2526 102.336 43.3031 102.193 43.342C102.063 43.3799 101.928 43.4001 101.793 43.402C101.681 43.4084 101.57 43.39 101.466 43.3481C101.362 43.3063 101.269 43.242 101.193 43.16C101.042 42.9672 100.967 42.7255 100.982 42.481V34H98.959V43.191L98.953 43.198ZM116.58 45.024L114.362 42.7C114.66 42.2003 114.889 41.6619 115.041 41.1C115.209 40.4645 115.295 39.8102 115.297 39.153H113.652C113.655 39.5688 113.612 39.9837 113.524 40.39C113.445 40.7538 113.326 41.1079 113.17 41.446L111.117 39.303C111.611 38.9576 112.053 38.5434 112.43 38.073C112.772 37.6363 112.953 37.0954 112.943 36.541C112.951 36.1815 112.868 35.8259 112.702 35.507C112.547 35.2176 112.33 34.9655 112.068 34.768C111.795 34.5666 111.488 34.4158 111.162 34.323C110.814 34.2216 110.453 34.1708 110.091 34.172C109.694 34.168 109.298 34.2291 108.921 34.353C108.581 34.4645 108.265 34.6415 107.993 34.874C107.732 35.0994 107.521 35.377 107.374 35.689C107.219 36.0261 107.142 36.3938 107.148 36.7648C107.155 37.1359 107.245 37.5006 107.412 37.832C107.663 38.2835 107.97 38.7018 108.325 39.077C108.074 39.2474 107.835 39.4338 107.608 39.635C107.386 39.8326 107.185 40.0524 107.008 40.291C106.831 40.5275 106.691 40.7895 106.593 41.068C106.49 41.364 106.439 41.6756 106.442 41.989C106.441 42.4075 106.528 42.8215 106.698 43.204C106.868 43.5895 107.114 43.9363 107.423 44.223C107.754 44.5268 108.141 44.7626 108.562 44.917C109.042 45.0937 109.55 45.1808 110.062 45.174C110.601 45.1746 111.136 45.0854 111.646 44.91C112.163 44.7317 112.648 44.4691 113.08 44.133L113.925 45.023H116.581L116.58 45.024ZM109.509 43.455C109.29 43.378 109.087 43.2629 108.909 43.115C108.747 42.9775 108.616 42.8065 108.526 42.6137C108.436 42.4208 108.389 42.2108 108.388 41.998C108.386 41.6808 108.492 41.3723 108.688 41.123C108.926 40.8272 109.205 40.5678 109.518 40.353L111.993 42.964C111.502 43.3619 110.89 43.5802 110.258 43.583C110.003 43.5849 109.749 43.5416 109.509 43.455ZM109.309 35.955C109.415 35.8562 109.54 35.7794 109.676 35.7289C109.812 35.6785 109.956 35.6554 110.101 35.661C110.363 35.6505 110.619 35.7395 110.818 35.91C110.91 35.9922 110.983 36.0937 111.031 36.2073C111.079 36.3209 111.102 36.4437 111.097 36.567C111.095 36.845 110.988 37.1118 110.797 37.314C110.531 37.5915 110.233 37.8362 109.909 38.043C109.728 37.852 109.579 37.691 109.464 37.56C109.364 37.4495 109.271 37.3337 109.184 37.213C109.122 37.1269 109.071 37.0331 109.033 36.934C109.003 36.8492 108.988 36.7599 108.988 36.67C108.987 36.5354 109.014 36.402 109.068 36.2787C109.122 36.1555 109.202 36.0451 109.302 35.955H109.309ZM128.769 34.302H119.85V36.128H123.276V45.017H125.343V36.128H128.769V34.302ZM132.869 37.019C132.817 37.0089 132.764 37.0038 132.711 37.004H132.462C132.237 37.0065 132.014 37.0499 131.805 37.132C131.566 37.2249 131.34 37.3493 131.134 37.502C130.907 37.6673 130.7 37.8572 130.515 38.068C130.319 38.2906 130.151 38.5364 130.015 38.8V37.11H128.158V45.018H130.181V40.233C130.393 39.7786 130.763 39.4166 131.222 39.214C131.739 38.9801 132.3 38.859 132.867 38.859V37.019H132.869ZM137.593 44.806C138.099 44.5619 138.539 44.1997 138.876 43.75L138.921 44.188C138.962 44.4538 139.099 44.6953 139.306 44.867C139.561 45.0532 139.874 45.1438 140.189 45.123C140.488 45.1173 140.787 45.0818 141.079 45.017V43.297C141.01 43.2986 140.942 43.2861 140.878 43.2601C140.815 43.2341 140.757 43.1953 140.709 43.146C140.622 43.0119 140.582 42.8524 140.596 42.693V40.233C140.626 39.7849 140.557 39.3357 140.394 38.9172C140.231 38.4987 139.978 38.1211 139.653 37.811C138.905 37.2122 137.96 36.9135 137.004 36.973C135.831 36.9718 134.684 37.3242 133.714 37.984L134.333 39.267C134.717 38.9959 135.133 38.7729 135.571 38.603C135.966 38.4536 136.385 38.377 136.808 38.377C137.286 38.3418 137.76 38.4934 138.129 38.8C138.283 38.959 138.403 39.1486 138.479 39.3564C138.556 39.5643 138.588 39.7859 138.574 40.007V40.46C138.284 40.3413 137.983 40.2551 137.674 40.203C137.333 40.1424 136.987 40.1123 136.64 40.113C136.18 40.1084 135.723 40.1721 135.282 40.302C134.9 40.4129 134.54 40.5892 134.218 40.823C133.928 41.0358 133.691 41.3118 133.524 41.63C133.357 41.949 133.272 42.3041 133.275 42.664C133.27 43.0078 133.338 43.3487 133.475 43.664C133.609 43.963 133.802 44.2322 134.041 44.456C134.29 44.6869 134.583 44.8663 134.902 44.984C135.244 45.1117 135.607 45.1758 135.973 45.173C136.533 45.1754 137.087 45.0498 137.591 44.806H137.593ZM135.586 43.35C135.46 43.2466 135.36 43.1162 135.292 42.9685C135.224 42.8208 135.19 42.6596 135.193 42.497C135.193 42.317 135.24 42.14 135.327 41.9826C135.414 41.8252 135.54 41.6925 135.693 41.597C136.073 41.3467 136.522 41.2224 136.976 41.242C137.25 41.2433 137.523 41.2711 137.791 41.325C138.058 41.3764 138.321 41.4496 138.576 41.544V42.449C138.57 42.5641 138.537 42.6762 138.479 42.7761C138.422 42.8759 138.341 42.9605 138.244 43.023C138.049 43.241 137.802 43.407 137.527 43.506C137.217 43.6272 136.887 43.6886 136.554 43.687C136.2 43.6993 135.854 43.5791 135.584 43.35H135.586ZM146.509 45.017L149.422 37.109H147.522L145.5 43.372L143.493 37.109H141.409L144.322 45.017H146.509ZM156.085 44.587C156.688 44.2402 157.175 43.7229 157.485 43.1L155.749 42.617C155.604 42.9541 155.345 43.2292 155.017 43.394C154.669 43.5878 154.277 43.689 153.878 43.688C153.62 43.6886 153.364 43.6425 153.123 43.552C152.636 43.3708 152.237 43.0096 152.009 42.543C151.883 42.2828 151.806 42.0013 151.782 41.713H157.894C157.916 41.6145 157.929 41.514 157.932 41.413C157.932 41.292 157.94 41.167 157.94 41.036C157.942 40.5102 157.847 39.9886 157.66 39.497C157.48 39.0126 157.203 38.5702 156.846 38.197C156.476 37.8168 156.034 37.5142 155.546 37.307C154.999 37.0784 154.411 36.9654 153.818 36.975C153.22 36.9662 152.627 37.0791 152.074 37.307C151.577 37.5142 151.128 37.8205 150.754 38.207C150.392 38.5843 150.109 39.0309 149.924 39.52C149.731 40.0284 149.634 40.5682 149.637 41.112C149.635 41.6443 149.735 42.1722 149.931 42.667C150.123 43.1562 150.413 43.6013 150.782 43.9754C151.151 44.3494 151.592 44.6446 152.079 44.843C152.625 45.0658 153.21 45.1764 153.8 45.168C154.601 45.1898 155.393 44.9887 156.086 44.587H156.085ZM151.746 40.399C151.761 40.122 151.829 39.8505 151.946 39.599C152.055 39.3668 152.206 39.1569 152.391 38.98C152.573 38.8087 152.785 38.6731 153.017 38.58C153.38 38.4391 153.775 38.4011 154.159 38.4703C154.542 38.5394 154.899 38.713 155.19 38.972C155.585 39.3445 155.821 39.8556 155.847 40.398H151.742L151.746 40.399ZM159.081 43.191C159.064 43.454 159.101 43.7178 159.191 43.9657C159.28 44.2136 159.42 44.4405 159.601 44.632C159.801 44.8091 160.034 44.9449 160.287 45.0315C160.539 45.1182 160.806 45.1541 161.073 45.137C161.403 45.1328 161.731 45.0973 162.054 45.031C162.382 44.9722 162.702 44.8713 163.004 44.731L162.733 43.192C162.599 43.2536 162.46 43.3041 162.318 43.343C162.188 43.3808 162.053 43.401 161.918 43.403C161.806 43.4094 161.695 43.391 161.591 43.3491C161.487 43.3073 161.394 43.243 161.318 43.161C161.167 42.9682 161.092 42.7265 161.107 42.482V34H159.085V43.191H159.081ZM169.162 45.017V41.425H171.697C172.167 41.4309 172.631 41.3282 173.055 41.125C173.457 40.9318 173.817 40.6597 174.112 40.325C174.406 39.9899 174.636 39.6039 174.791 39.186C174.951 38.7639 175.033 38.3163 175.032 37.865C175.03 37.4226 174.943 36.9846 174.776 36.575C174.609 36.1541 174.369 35.7658 174.067 35.428C173.763 35.0893 173.396 34.8126 172.987 34.613C172.562 34.4053 172.095 34.2995 171.622 34.304H167.079V45.017H169.162ZM169.162 36.128H171.486C171.67 36.1288 171.853 36.1672 172.022 36.241C172.199 36.3177 172.357 36.434 172.482 36.581C172.62 36.7442 172.727 36.9308 172.799 37.132C172.882 37.3669 172.923 37.6148 172.92 37.864C172.945 38.3188 172.808 38.7677 172.535 39.132C172.422 39.2791 172.277 39.398 172.111 39.4792C171.944 39.5604 171.761 39.6018 171.576 39.6H169.162V36.128ZM176.194 43.191C176.177 43.4541 176.215 43.7179 176.304 43.9658C176.394 44.2138 176.534 44.4405 176.715 44.632C176.915 44.809 177.148 44.9447 177.4 45.0313C177.653 45.118 177.92 45.1539 178.186 45.137C178.516 45.1329 178.844 45.0974 179.167 45.031C179.496 44.9721 179.815 44.8713 180.118 44.731L179.846 43.192C179.712 43.2538 179.573 43.3043 179.431 43.343C179.301 43.3808 179.166 43.401 179.031 43.403C178.919 43.4094 178.808 43.391 178.704 43.3491C178.6 43.3073 178.507 43.243 178.431 43.161C178.28 42.9682 178.205 42.7265 178.22 42.482V34H176.197V43.191H176.194ZM184.694 44.806C185.2 44.5619 185.64 44.1997 185.977 43.75L186.022 44.188C186.063 44.4538 186.2 44.6953 186.407 44.867C186.662 45.0532 186.975 45.1438 187.29 45.123C187.589 45.1173 187.888 45.0818 188.18 45.017V43.297C188.111 43.2986 188.043 43.2861 187.979 43.2601C187.916 43.2341 187.858 43.1953 187.81 43.146C187.723 43.0119 187.683 42.8524 187.697 42.693V40.233C187.726 39.7849 187.657 39.3358 187.494 38.9174C187.331 38.4989 187.079 38.1212 186.754 37.811C186.006 37.2122 185.061 36.9135 184.105 36.973C182.932 36.9718 181.785 37.3242 180.815 37.984L181.434 39.267C181.818 38.9959 182.233 38.7729 182.671 38.603C183.067 38.4535 183.486 38.3769 183.909 38.377C184.387 38.3416 184.86 38.4933 185.229 38.8C185.384 38.9588 185.503 39.1483 185.58 39.3562C185.657 39.5641 185.689 39.7858 185.675 40.007V40.46C185.385 40.3413 185.084 40.2551 184.775 40.203C184.434 40.1424 184.088 40.1123 183.741 40.113C183.281 40.1084 182.824 40.1721 182.383 40.302C182.001 40.4127 181.641 40.589 181.319 40.823C181.029 41.0361 180.792 41.312 180.624 41.63C180.457 41.949 180.372 42.3041 180.375 42.664C180.369 43.0078 180.437 43.3488 180.575 43.664C180.709 43.963 180.902 44.2322 181.141 44.456C181.39 44.6869 181.682 44.8663 182.001 44.984C182.344 45.1118 182.707 45.1759 183.073 45.173C183.634 45.1754 184.187 45.0499 184.692 44.806H184.694ZM182.687 43.35C182.561 43.2466 182.461 43.1162 182.393 42.9685C182.325 42.8208 182.291 42.6596 182.294 42.497C182.294 42.317 182.341 42.14 182.428 41.9826C182.515 41.8252 182.641 41.6925 182.794 41.597C183.174 41.3467 183.623 41.2224 184.077 41.242C184.351 41.2433 184.624 41.2711 184.892 41.325C185.159 41.3765 185.422 41.4497 185.677 41.544V42.449C185.671 42.5641 185.638 42.6762 185.58 42.7761C185.523 42.8759 185.442 42.9605 185.345 43.023C185.15 43.2408 184.903 43.4067 184.628 43.506C184.318 43.6273 183.987 43.6887 183.654 43.687C183.3 43.6992 182.955 43.579 182.685 43.35H182.687ZM196.858 40.083C196.858 39.7035 196.824 39.3247 196.758 38.951C196.701 38.5991 196.581 38.2603 196.404 37.951C196.229 37.6552 195.979 37.4108 195.679 37.242C195.308 37.0466 194.891 36.9528 194.472 36.97C193.824 36.9594 193.182 37.1041 192.601 37.392C192.072 37.6513 191.631 38.0607 191.333 38.569V37.109H189.509V45.017H191.531V40.399C191.6 40.1593 191.713 39.9343 191.863 39.735C192.008 39.5397 192.178 39.3645 192.369 39.214C192.551 39.071 192.753 38.9564 192.969 38.874C193.166 38.7961 193.376 38.7551 193.588 38.753C193.765 38.7455 193.942 38.7815 194.102 38.8579C194.263 38.9342 194.402 39.0486 194.508 39.191C194.762 39.6071 194.878 40.0929 194.84 40.579V45.016H196.863V40.082L196.858 40.083ZM205.897 40.083C205.897 39.7035 205.863 39.3247 205.797 38.951C205.74 38.5991 205.62 38.2603 205.443 37.951C205.267 37.6555 205.017 37.411 204.718 37.242C204.347 37.0466 203.93 36.9528 203.511 36.97C202.862 36.9596 202.22 37.1042 201.639 37.392C201.11 37.6511 200.669 38.0605 200.372 38.569V37.109H198.546V45.017H200.568V40.399C200.637 40.1593 200.75 39.9343 200.9 39.735C201.045 39.5397 201.215 39.3645 201.406 39.214C201.588 39.0708 201.79 38.9562 202.006 38.874C202.203 38.7962 202.412 38.7552 202.624 38.753C202.802 38.7454 202.978 38.7813 203.139 38.8576C203.299 38.934 203.439 39.0484 203.545 39.191C203.799 39.6071 203.915 40.0929 203.877 40.579V45.016H205.899V40.082L205.897 40.083ZM213.541 44.583C214.144 44.2362 214.631 43.7189 214.941 43.096L213.206 42.613C213.061 42.9501 212.802 43.2252 212.474 43.39C212.125 43.5838 211.733 43.685 211.334 43.684C211.077 43.6847 210.821 43.6386 210.58 43.548C210.091 43.3691 209.689 43.0094 209.457 42.543C209.331 42.2826 209.254 42.0012 209.23 41.713H215.343C215.365 41.6144 215.377 41.514 215.38 41.413C215.38 41.292 215.388 41.167 215.388 41.036C215.389 40.5103 215.295 39.9888 215.109 39.497C214.929 39.0128 214.651 38.5704 214.294 38.197C213.924 37.8166 213.482 37.514 212.994 37.307C212.447 37.0781 211.859 36.965 211.266 36.975C210.668 36.9662 210.075 37.0791 209.523 37.307C209.026 37.514 208.576 37.8202 208.202 38.207C207.84 38.5843 207.557 39.0309 207.372 39.52C207.179 40.0284 207.082 40.5682 207.085 41.112C207.085 41.6447 207.187 42.1726 207.385 42.667C207.576 43.1575 207.866 43.6039 208.235 43.9789C208.605 44.3538 209.047 44.6496 209.535 44.848C210.081 45.0708 210.666 45.1814 211.256 45.173C212.057 45.1927 212.847 44.9899 213.539 44.587L213.541 44.583ZM209.202 40.395C209.217 40.118 209.285 39.8465 209.402 39.595C209.511 39.363 209.662 39.1532 209.847 38.976C210.029 38.8044 210.242 38.6687 210.474 38.576C210.837 38.4351 211.232 38.3971 211.616 38.4663C211.999 38.5354 212.356 38.709 212.647 38.968C213.042 39.3407 213.277 39.8517 213.303 40.394H209.203L209.202 40.395ZM221.261 37.014C221.209 37.0039 221.155 36.9989 221.102 36.999H220.853C220.628 37.0016 220.406 37.045 220.197 37.127C219.957 37.2196 219.731 37.3441 219.525 37.497C219.299 37.6626 219.091 37.8524 218.906 38.063C218.71 38.2856 218.542 38.5314 218.406 38.795V37.105H216.55V45.013H218.572V40.233C218.785 39.7788 219.155 39.4169 219.614 39.214C220.131 38.9801 220.692 38.859 221.259 38.859V37.019L221.261 37.014Z" fill="white"/>
<path fill-rule="evenodd" clip-rule="evenodd" d="M34.579 12.644L32.854 17.856L27.43 0.703022H20L29.789 25.703H35.489L39.01 16.759L42.567 25.703H48.267L58.057 0.703022H50.601L45.214 17.852L43.414 12.64L47.534 0.702023H41.23L39.012 8.41402L36.83 0.703022H30.53L34.579 12.644ZM65.673 25.705V7.18202H58.982V25.705H65.673ZM65.673 5.63302V-0.000976562H58.982V5.63302H65.673ZM68.56 20.705C68.5102 21.4323 68.613 22.1619 68.8616 22.8471C69.1103 23.5323 69.4994 24.158 70.004 24.684C71.1448 25.663 72.6239 26.1559 74.124 26.057C75.0775 26.0503 76.0276 25.944 76.959 25.74C77.8879 25.5515 78.7919 25.2562 79.653 24.86L78.808 19.93C78.5202 20.097 78.2124 20.2271 77.892 20.317C77.5947 20.4063 77.2864 20.4538 76.976 20.458C75.8253 20.458 75.2503 19.7537 75.251 18.345V-0.000976562H68.56V20.705ZM92.048 25.283C93.1428 24.7524 94.0422 23.8898 94.618 22.818L94.759 23.487C95.111 25.201 96.4257 26.058 98.703 26.058C99.6511 26.0317 100.595 25.9138 101.52 25.706V20.071C101.334 20.0697 101.151 20.0299 100.981 19.9541C100.811 19.8784 100.659 19.7684 100.534 19.631C100.308 19.2294 100.21 18.7687 100.253 18.31V-0.000976562H93.562V9.92902C93.0348 8.95608 92.2328 8.15996 91.256 7.64002C90.2441 7.09683 89.1114 6.8182 87.963 6.83002C86.8304 6.81582 85.7097 7.06288 84.688 7.55202C83.704 8.03192 82.8336 8.71614 82.135 9.55902C81.3933 10.4618 80.826 11.4947 80.462 12.605C80.0543 13.8301 79.8516 15.114 79.862 16.405C79.8475 17.7303 80.0679 19.0476 80.513 20.296C80.9141 21.4265 81.5313 22.4681 82.33 23.363C83.0987 24.2161 84.0411 24.8947 85.094 25.353C86.199 25.8282 87.3913 26.0666 88.594 26.053C89.7887 26.0608 90.9697 25.7976 92.048 25.283ZM87.769 19.367C87.0768 18.5969 86.7173 17.5842 86.769 16.55C86.7649 16.0104 86.8543 15.4742 87.033 14.965C87.1951 14.497 87.4314 14.058 87.733 13.665C88.0163 13.2979 88.3768 12.9975 88.789 12.785C89.2088 12.5715 89.674 12.4627 90.145 12.468C90.8816 12.4796 91.5912 12.7473 92.152 13.225C92.8002 13.7496 93.2983 14.4361 93.596 15.215V18.525C93.27 19.0825 92.8087 19.5488 92.2548 19.8809C91.701 20.213 91.0723 20.4001 90.427 20.425C89.9344 20.4458 89.443 20.3623 88.985 20.18C88.5269 19.9977 88.1125 19.7206 87.769 19.367ZM118.81 25.706V18.028H121.381L125.781 25.705H133.53L128.247 16.514C129.369 15.7218 130.277 14.663 130.889 13.433C131.523 12.1718 131.849 10.7778 131.839 9.36602C131.834 8.28417 131.619 7.2136 131.205 6.21402C130.796 5.18962 130.205 4.24726 129.462 3.43202C128.709 2.61224 127.807 1.94304 126.804 1.46002C125.75 0.950943 124.593 0.69189 123.423 0.703022H111.943V25.703H118.81V25.706ZM118.81 6.69002H122.965C123.213 6.70955 123.453 6.78078 123.672 6.89911C123.89 7.01744 124.081 7.18025 124.233 7.37702C124.69 7.93531 124.917 8.64713 124.867 9.36702C124.909 10.0668 124.717 10.7607 124.321 11.339C124.193 11.5401 124.02 11.7082 123.815 11.8298C123.61 11.9514 123.379 12.0231 123.141 12.039H118.81V6.68902V6.69002ZM141.417 25.706V7.18202H134.73V25.705H141.42L141.417 25.706ZM141.417 5.63402V-0.000976562H134.73V5.63302H141.42L141.417 5.63402ZM155.644 25.283C156.739 24.7524 157.638 23.8898 158.214 22.818L158.355 23.487C158.707 25.201 160.022 26.058 162.299 26.058C163.247 26.0317 164.191 25.9138 165.116 25.706V20.071C164.93 20.0697 164.747 20.0299 164.577 19.9541C164.407 19.8784 164.255 19.7684 164.13 19.631C163.904 19.2294 163.806 18.7687 163.849 18.31V-0.000976562H157.158V9.92902C156.631 8.95608 155.829 8.15996 154.852 7.64002C153.84 7.09687 152.707 6.81825 151.559 6.83002C150.426 6.81589 149.306 7.06295 148.284 7.55202C147.3 8.03192 146.43 8.71614 145.731 9.55902C144.989 10.462 144.422 11.4948 144.058 12.605C143.651 13.8301 143.448 15.114 143.458 16.405C143.444 17.7303 143.664 19.0476 144.109 20.296C144.509 21.4252 145.126 22.4659 145.923 23.36C146.692 24.2132 147.634 24.8917 148.687 25.35C149.792 25.8252 150.984 26.0636 152.187 26.05C153.383 26.0591 154.564 25.7968 155.644 25.283ZM151.365 19.367C150.673 18.597 150.313 17.5842 150.365 16.55C150.361 16.0104 150.45 15.4742 150.629 14.965C150.791 14.4969 151.027 14.0579 151.329 13.665C151.613 13.2978 151.973 12.9974 152.386 12.785C152.805 12.5715 153.27 12.4627 153.741 12.468C154.478 12.4796 155.187 12.7473 155.748 13.225C156.396 13.7496 156.894 14.4361 157.192 15.215V18.525C156.866 19.0825 156.405 19.5488 155.851 19.8809C155.297 20.213 154.668 20.4001 154.023 20.425C153.53 20.4458 153.039 20.3623 152.581 20.18C152.123 19.9977 151.709 19.7206 151.365 19.367ZM182.389 24.644C183.868 23.7914 185.072 22.5327 185.857 21.017L180.188 19.397C179.957 20.0058 179.495 20.499 178.903 20.77C178.266 21.0967 177.559 21.2658 176.843 21.263C176.077 21.266 175.329 21.0389 174.694 20.611C174.355 20.3693 174.079 20.0497 173.889 19.679C173.699 19.3083 173.601 18.8975 173.603 18.481H186.597C186.644 18.199 186.685 17.8764 186.72 17.513C186.755 17.1497 186.772 16.7917 186.773 16.439C186.777 15.1946 186.557 13.9597 186.121 12.794C185.697 11.6484 185.038 10.6046 184.185 9.73002C183.277 8.81633 182.193 8.09735 180.998 7.61702C178.177 6.56062 175.068 6.56062 172.247 7.61702C171.055 8.1018 169.977 8.82726 169.078 9.74802C168.218 10.6443 167.558 11.7124 167.141 12.882C166.703 14.1008 166.483 15.387 166.49 16.682C166.484 17.8995 166.711 19.1068 167.159 20.239C167.6 21.3592 168.265 22.3777 169.113 23.232C170.02 24.1335 171.106 24.8352 172.3 25.292C173.682 25.8173 175.152 26.0742 176.631 26.049C178.643 26.1169 180.635 25.6309 182.389 24.644ZM173.462 14.467C173.534 13.6693 173.883 12.9219 174.448 12.354C175.025 11.8544 175.762 11.5793 176.525 11.5793C177.289 11.5793 178.026 11.8544 178.603 12.354C179.168 12.9222 179.516 13.6694 179.589 14.467H173.462ZM201.175 6.86102C200.895 6.82931 200.612 6.81761 200.33 6.82602C199.201 6.82553 198.1 7.17489 197.178 7.82602C196.14 8.56866 195.3 9.554 194.731 10.696V7.18202H188.604V25.705H195.295V14.718C195.905 14.0023 196.734 13.5071 197.654 13.309C198.804 13.0156 199.988 12.8734 201.175 12.886V6.86602V6.86102Z" fill="#FFCC00"/>
</svg>
